<mxfile host="app.diagrams.net" modified="2023-04-09T00:54:27.247Z" agent="Mozilla/5.0 (X11; Linux x86_64) AppleWebKit/537.36 (KHTML, like Gecko) Chrome/112.0.0.0 Safari/537.36" etag="qoTckWfr7g2Eg16krnMf" version="21.1.5" type="device">
  <diagram name="Page-1" id="5f0bae14-7c28-e335-631c-24af17079c00">
    <mxGraphModel dx="1335" dy="1255" grid="1" gridSize="10" guides="1" tooltips="1" connect="1" arrows="1" fold="1" page="1" pageScale="1" pageWidth="1100" pageHeight="850" background="none" math="0" shadow="0">
      <root>
        <mxCell id="0" />
        <mxCell id="1" parent="0" />
        <mxCell id="39150e848f15840c-5" value="Other..." style="shape=component;align=left;spacingLeft=36;rounded=0;shadow=1;comic=1;labelBackgroundColor=none;strokeWidth=1;fontFamily=Delicious Handrawn, Regular;fontSize=14;html=1;sketch=1;curveFitting=1;jiggle=1;direction=west;" parent="1" vertex="1">
          <mxGeometry x="100" y="380" width="140" height="60" as="geometry" />
        </mxCell>
        <mxCell id="co6g7Vx6vjKYst2dlTXn-1" value="Prometheus" style="shape=cylinder3;whiteSpace=wrap;html=1;boundedLbl=1;backgroundOutline=1;size=15;sketch=1;curveFitting=1;jiggle=2;sketchStyle=comic;comic=1;fontFamily=Delicious Handrawn, Regular;fontSize=15;" parent="1" vertex="1">
          <mxGeometry x="470" y="100" width="60" height="80" as="geometry" />
        </mxCell>
        <mxCell id="co6g7Vx6vjKYst2dlTXn-2" value="Your&lt;br style=&quot;font-size: 14px;&quot;&gt;App" style="rounded=0;whiteSpace=wrap;html=1;sketch=1;curveFitting=1;jiggle=2;shadow=1;comic=1;fontFamily=Delicious Handrawn, Regular;fontSize=14;" parent="1" vertex="1">
          <mxGeometry x="100" y="320" width="120" height="60" as="geometry" />
        </mxCell>
        <mxCell id="co6g7Vx6vjKYst2dlTXn-3" value="MGMT" style="rounded=0;whiteSpace=wrap;html=1;sketch=1;curveFitting=1;jiggle=2;shadow=0;comic=1;fontFamily=Delicious Handrawn, Regular;fontSize=14;" parent="1" vertex="1">
          <mxGeometry x="200" y="340" width="70" height="20" as="geometry" />
        </mxCell>
        <mxCell id="co6g7Vx6vjKYst2dlTXn-10" value="" style="edgeStyle=elbowEdgeStyle;elbow=horizontal;endArrow=classic;html=1;curved=0;rounded=0;endSize=8;startSize=8;exitX=1;exitY=0.75;exitDx=0;exitDy=0;entryX=0.4;entryY=0.45;entryDx=0;entryDy=0;entryPerimeter=0;sketch=1;curveFitting=1;jiggle=2;comic=1;" parent="1" source="co6g7Vx6vjKYst2dlTXn-3" edge="1">
          <mxGeometry width="50" height="50" relative="1" as="geometry">
            <mxPoint x="280" y="300" as="sourcePoint" />
            <mxPoint x="360" y="350" as="targetPoint" />
            <Array as="points">
              <mxPoint x="320" y="355" />
            </Array>
          </mxGeometry>
        </mxCell>
        <mxCell id="co6g7Vx6vjKYst2dlTXn-11" value="" style="edgeStyle=elbowEdgeStyle;elbow=horizontal;endArrow=classic;html=1;curved=0;rounded=0;endSize=8;startSize=8;exitX=0;exitY=0.7;exitDx=0;exitDy=0;sketch=1;curveFitting=1;jiggle=2;comic=1;" parent="1" source="39150e848f15840c-5" edge="1">
          <mxGeometry width="50" height="50" relative="1" as="geometry">
            <mxPoint x="280" y="365" as="sourcePoint" />
            <mxPoint x="360" y="350" as="targetPoint" />
            <Array as="points">
              <mxPoint x="320" y="370" />
            </Array>
          </mxGeometry>
        </mxCell>
        <mxCell id="co6g7Vx6vjKYst2dlTXn-12" value="PROTO" style="rounded=0;whiteSpace=wrap;html=1;sketch=1;curveFitting=1;jiggle=2;comic=1;fontFamily=Delicious Handrawn, Regular;fontSize=14;dashed=1;strokeColor=#000000;fontColor=#000000;" parent="1" vertex="1">
          <mxGeometry x="360" y="340" width="60" height="20" as="geometry" />
        </mxCell>
        <mxCell id="co6g7Vx6vjKYst2dlTXn-16" value="PROTO" style="rounded=0;whiteSpace=wrap;html=1;sketch=1;curveFitting=1;jiggle=2;comic=1;fontFamily=Delicious Handrawn, Regular;fontSize=14;dashed=1;strokeColor=#000000;fontColor=#000000;" parent="1" vertex="1">
          <mxGeometry x="450" y="340" width="60" height="20" as="geometry" />
        </mxCell>
        <mxCell id="co6g7Vx6vjKYst2dlTXn-19" value="" style="edgeStyle=elbowEdgeStyle;elbow=vertical;endArrow=none;html=1;curved=0;rounded=0;endSize=8;startSize=8;entryX=0.5;entryY=1;entryDx=0;entryDy=0;entryPerimeter=0;comic=1;exitX=0.5;exitY=0;exitDx=0;exitDy=0;startArrow=classic;startFill=1;endFill=0;" parent="1" source="PK9DBY7blVcXayACH84x-1" target="co6g7Vx6vjKYst2dlTXn-1" edge="1">
          <mxGeometry width="50" height="50" relative="1" as="geometry">
            <mxPoint x="160" y="260" as="sourcePoint" />
            <mxPoint x="570" y="640" as="targetPoint" />
          </mxGeometry>
        </mxCell>
        <mxCell id="PK9DBY7blVcXayACH84x-1" value="fc-prom" style="rounded=0;whiteSpace=wrap;html=1;sketch=1;curveFitting=1;jiggle=2;shadow=1;comic=1;fontFamily=Delicious Handrawn, Regular;fontSize=18;fontStyle=0" vertex="1" parent="1">
          <mxGeometry x="590" y="320" width="120" height="60" as="geometry" />
        </mxCell>
        <mxCell id="PK9DBY7blVcXayACH84x-2" value="MGMT" style="rounded=0;whiteSpace=wrap;html=1;sketch=1;curveFitting=1;jiggle=2;shadow=0;comic=1;fontFamily=Delicious Handrawn, Regular;fontSize=14;" vertex="1" parent="1">
          <mxGeometry x="540" y="340" width="70" height="20" as="geometry" />
        </mxCell>
        <mxCell id="PK9DBY7blVcXayACH84x-3" value="" style="endArrow=classic;html=1;rounded=0;exitX=0;exitY=0.5;exitDx=0;exitDy=0;entryX=1;entryY=0.5;entryDx=0;entryDy=0;sketch=1;curveFitting=1;jiggle=2;" edge="1" parent="1" source="PK9DBY7blVcXayACH84x-2" target="co6g7Vx6vjKYst2dlTXn-16">
          <mxGeometry width="50" height="50" relative="1" as="geometry">
            <mxPoint x="350" y="660" as="sourcePoint" />
            <mxPoint x="400" y="610" as="targetPoint" />
          </mxGeometry>
        </mxCell>
        <mxCell id="PK9DBY7blVcXayACH84x-4" value="" style="edgeStyle=elbowEdgeStyle;elbow=horizontal;endArrow=classic;html=1;curved=0;rounded=0;endSize=8;startSize=8;sketch=1;curveFitting=1;jiggle=2;comic=1;entryX=0;entryY=0.5;entryDx=0;entryDy=0;" edge="1" parent="1" target="co6g7Vx6vjKYst2dlTXn-12">
          <mxGeometry width="50" height="50" relative="1" as="geometry">
            <mxPoint x="320" y="520" as="sourcePoint" />
            <mxPoint x="370" y="360" as="targetPoint" />
            <Array as="points">
              <mxPoint x="320" y="470" />
            </Array>
          </mxGeometry>
        </mxCell>
        <mxCell id="PK9DBY7blVcXayACH84x-5" value="Other Devices..." style="text;html=1;strokeColor=none;fillColor=none;align=center;verticalAlign=middle;whiteSpace=wrap;rounded=0;fontFamily=Delicious Handrawn, Regular;fontSize=14;" vertex="1" parent="1">
          <mxGeometry x="260" y="530" width="140" height="30" as="geometry" />
        </mxCell>
      </root>
    </mxGraphModel>
  </diagram>
</mxfile>
